<?xml version="1.0" encoding="UTF-8" standalone="no"?>
<!-- Created with Inkscape (http://www.inkscape.org/) -->

<svg
   width="1394.2145"
   height="1443.8359"
   viewBox="0 0 368.88591 382.01493"
   version="1.1"
   id="svg1"
   xmlns="http://www.w3.org/2000/svg"
   xmlns:svg="http://www.w3.org/2000/svg">
  <defs
     id="defs1" />
  <g
     id="layer1"
     transform="translate(-236.41051,377.65331)">
    <path
       id="rect4"
       style="fill:#008000;stroke:none;stroke-width:0.264999"
       d="m 236.4105,-377.6533 v 276.75828 h 87.59103 v -36.22466 h -50.78811 v -204.30844 h 207.56925 v 69.03144 h 36.8029 V -377.6533 Z" />
    <path
       id="path5"
       style="fill:#ffcc00;stroke:none;stroke-width:0.264999"
       d="m 480.78267,-272.39668 v 36.22466 5.2e-4 h 87.7109 V -31.863061 H 360.92434 l -0.11978,-69.032209 v 0 H 324.00164 L 324.12142,4.3616191 H 605.29647 V -272.39668 Z" />
    <path
       id="rect31"
       style="fill:#008000;stroke-width:0.316257"
       d="m 316.19456,-137.11968 44.72978,-0.0992 -0.11978,36.32361 -44.61,-2e-5 z" />
    <path
       id="path44"
       style="fill:#e6e6e6;stroke:none;stroke-width:0.264999"
       d="m 324.12142,-272.39668 v 135.277 h 36.68303 l 0.11989,-0.0992 v -98.95262 h 119.85783 5e-4 v -5.2e-4 -36.22466 z" />
    <path
       id="path47"
       style="fill:#e6e6e6;stroke:none;stroke-width:0.264999"
       d="m 480.78277,-236.17193 v 99.05234 H 360.80454 v 36.22466 h 156.78113 v -135.277 z" />
    <path
       id="path49"
       style="font-weight:bold;font-size:196.277px;font-family:Ebrima;-inkscape-font-specification:'Ebrima Bold';fill:#ffffff;stroke-width:16.3821"
       d="m 423.43527,-188.5256 c -0.8503,-0.26409 -0.4322,0.74022 -0.5293,1.2293 0,47.87148 0,95.742969 0,143.614449 12.7884,0 25.5768,0 38.3653,0 0,-17.53255 0,-35.0651 0,-52.59766 2.6736,0.0223 5.2698,-0.31195 7.8046,0.64649 3.7369,1.64166 6.2263,5.06166 8.545,8.27084 3.8668,5.63887 7.1574,11.63971 10.7785,17.4326 5.286,8.74928 10.5726,17.49823 15.8582,26.24773 14.8047,0 29.6094,0 44.414,0 -10.6255,-16.56742 -21.1296,-33.21594 -31.8979,-49.68822 -3.8526,-5.5016 -8.0218,-10.930269 -13.4399,-14.987559 8.816,-3.93384 16.6775,-10.46589 21.223,-19.07788 4.0196,-7.48872 5.4587,-16.20698 4.659,-24.63116 -0.6555,-7.85501 -3.3358,-15.76358 -8.6887,-21.67592 -5.533,-6.22127 -13.2809,-10.07233 -21.2626,-12.10109 -9.4309,-2.52846 -19.2694,-2.7584 -28.9753,-2.68935 -15.6179,0.002 -31.2359,0.005 -46.8539,0.007 z m 48.0449,30.60351 c 2.7279,0.0446 5.5808,0.22084 8.1778,0.90235 3.092,0.78269 6.1459,2.4173 7.8222,5.23051 1.5436,2.42991 1.8971,5.39926 1.9388,8.21906 0.016,4.18315 -1.539,8.4143 -4.5764,11.34398 -3.2384,3.28118 -7.8412,5.00518 -12.4177,5.05595 -3.6622,0.18719 -7.4437,0.0157 -11.1536,0.0685 0,-10.27344 0,-20.54688 0,-30.82032 3.403,10e-6 6.8059,0 10.2089,0 z" />
    <path
       id="path3"
       style="font-weight:bold;font-size:196.277px;font-family:Ebrima;-inkscape-font-specification:'Ebrima Bold';fill:#008000;stroke-width:16.3821"
       d="m 426.61137,-184.81963 v 137.432439 h 30.9557 v -52.615389 h 8.338 c 1.9167,0 3.6737,0.415319 5.271,1.245919 1.6612,0.76671 3.2263,1.91702 4.6958,3.45043 1.5334,1.46952 3.0351,3.25815 4.5046,5.36659 1.4696,2.10845 3.003,4.50472 4.6003,7.1882 l 21.3718,35.36425 h 35.556 l -25.9721,-40.63577 c -1.3417,-2.10844 -2.8429,-4.24846 -4.5041,-6.42079 -1.5973,-2.23622 -3.2908,-4.31282 -5.0798,-6.229589 -1.789,-1.91676 -3.6415,-3.57804 -5.5583,-4.98367 -1.9168,-1.46952 -3.8977,-2.52368 -5.9423,-3.1626 v -0.38344 c 4.6642,-1.34174 8.8813,-3.1943 12.6509,-5.55832 3.8336,-2.36401 7.0917,-5.1756 9.7751,-8.43411 2.6835,-3.2585 4.7601,-6.90022 6.2296,-10.92543 1.4695,-4.08911 2.2045,-8.52975 2.2045,-13.32167 0,-24.91798 -16.6762,-37.37705 -50.0279,-37.37705 z m 30.9557,23.1929 h 13.9924 c 14.3758,0 21.5636,6.00628 21.5636,18.01803 0,5.7503 -2.0444,10.57404 -6.1335,14.47146 -4.0252,3.83354 -9.3605,5.75004 -16.0052,5.75004 h -13.4173 z" />
    <path
       id="path48"
       style="font-weight:bold;font-size:196.277px;font-family:Ebrima;-inkscape-font-specification:'Ebrima Bold';fill:#ffffff;stroke-width:16.3821"
       d="m 405.63255,-303.34982 c -12.81315,0.004 -40.14693,-0.0581 -40.729,-0.0578 0,0.52048 -0.003,6.36452 -0.003,6.36452 l 0.006,138.53516 h 38.36719 v -47.34571 c 10.46649,0.005 21.11629,0.27896 31.31919,-2.42666 11.116,-2.89752 21.5804,-9.07869 28.6287,-18.26071 6.2297,-7.99486 9.4863,-18.14357 9.4597,-28.25108 0.2172,-9.06078 -1.3888,-18.34213 -5.7432,-26.3668 -3.859,-6.97596 -10.0079,-12.63309 -17.2562,-15.9467 -9.1412,-4.40854 -19.385,-5.87892 -29.4425,-6.13738 -4.8668,-0.15762 -9.7377,-0.12092 -14.60632,-0.10676 z m 4.69142,31.17383 c 4.487,0.0157 9.0797,0.282 13.3317,1.93935 1.6613,0.63537 3.0157,1.42307 4.3242,2.62382 2.3876,2.17529 3.9647,5.29676 4.43,8.41534 0.6061,4.74105 0.4917,9.94811 -1.7542,14.33756 -2.0345,3.86089 -6.0762,6.29826 -10.2657,7.163 -5.5512,1.31894 -11.2418,0.82582 -16.90125,0.97705 -0.57075,0.12939 -0.0547,-0.85045 -0.23081,-1.19167 0.005,-11.42018 0.0102,-22.84036 0.0153,-34.26055 2.35026,-10e-4 4.70049,-0.003 7.05079,-0.004 z" />
    <path
       id="text2"
       style="font-weight:bold;font-size:196.277px;font-family:Ebrima;-inkscape-font-specification:'Ebrima Bold';fill:#ffcc00;stroke-width:16.3821"
       d="m 368.61163,-299.6449 v 137.43244 h 30.95574 v -47.3444 h 14.7593 c 16.612,0 29.8695,-4.24884 39.7728,-12.74651 9.9672,-8.56156 14.9505,-19.74245 14.9505,-33.54317 0,-29.19876 -17.3145,-43.79836 -51.9441,-43.79836 z m 30.95574,23.76806 h 12.1714 c 16.4842,0 24.7261,7.05991 24.7261,21.1801 0,14.43964 -8.2419,21.65966 -24.7261,21.65966 h -12.1714 z" />
  </g>
</svg>
